<?xml version="1.0" standalone="no"?><!DOCTYPE svg PUBLIC "-//W3C//DTD SVG 1.1//EN" "http://www.w3.org/Graphics/SVG/1.1/DTD/svg11.dtd"><svg t="1746275529491" class="icon" viewBox="0 0 1024 1024" version="1.1" xmlns="http://www.w3.org/2000/svg" p-id="3353" xmlns:xlink="http://www.w3.org/1999/xlink" width="200" height="200"><path d="M917.333333 640a64 64 0 0 0 64-64v-21.333333a64 64 0 0 0-64-64h-64v-151.68A106.666667 106.666667 0 0 0 832 128h-15.36l-14.08 42.666667-24.533333-29.866667-16.64 14.506667a106.666667 106.666667 0 0 0-32.853334 106.666666 106.666667 106.666667 0 0 0 78.08 77.226667h3.84v90.026667A149.333333 149.333333 0 0 0 704 384h-85.333333v-48.64a42.666667 42.666667 0 1 0-42.666667 0V384h-128v-48.64a42.666667 42.666667 0 1 0-42.666667 0V384h-85.333333a149.333333 149.333333 0 0 0-106.666667 45.013333v-90.026666h3.84a106.666667 106.666667 0 0 0 78.08-77.226667 106.666667 106.666667 0 0 0-32.853333-106.666667l-16.64-14.506666L221.44 170.666667l-14.08-42.666667H192a106.666667 106.666667 0 0 0-21.333333 210.986667V490.666667H106.666667a64 64 0 0 0-64 64v21.333333a64 64 0 0 0 64 64h64v21.333333H106.666667a64 64 0 0 0-64 64v21.333334a64 64 0 0 0 64 64h78.72A149.333333 149.333333 0 0 0 320 896h384a149.333333 149.333333 0 0 0 134.613333-85.333333H917.333333a64 64 0 0 0 64-64v-21.333334a64 64 0 0 0-64-64h-64v-21.333333h64z m21.333334-85.333333v21.333333a21.333333 21.333333 0 0 1-21.333334 21.333333h-64v-64h64a21.333333 21.333333 0 0 1 21.333334 21.333334z m-168.746667-303.573334a65.066667 65.066667 0 0 1 6.186667-47.786666 42.666667 42.666667 0 0 0 66.986666-19.84l3.626667-11.093334a64 64 0 0 1 24.96 112.426667A64 64 0 0 1 832 298.666667a69.973333 69.973333 0 0 1-14.72-1.92 64 64 0 0 1-47.36-45.653334zM128 234.666667a64 64 0 0 1 49.28-62.293334l3.626667 11.093334a42.666667 42.666667 0 0 0 66.986666 19.84 65.066667 65.066667 0 0 1 6.186667 47.786666 64 64 0 0 1-46.293333 45.866667A70.186667 70.186667 0 0 1 192 298.666667a64 64 0 0 1-64-64zM106.666667 597.333333a21.333333 21.333333 0 0 1-21.333334-21.333333v-21.333333a21.333333 21.333333 0 0 1 21.333334-21.333334h64v64H106.666667z m64 170.666667H106.666667a21.333333 21.333333 0 0 1-21.333334-21.333333v-21.333334a21.333333 21.333333 0 0 1 21.333334-21.333333h64v64z m746.666666-64a21.333333 21.333333 0 0 1 21.333334 21.333333v21.333334a21.333333 21.333333 0 0 1-21.333334 21.333333h-64v-64h64z m-106.666666-42.666667v85.333334a106.666667 106.666667 0 0 1-106.666667 106.666666H320a106.666667 106.666667 0 0 1-106.666667-106.666666V533.333333a106.666667 106.666667 0 0 1 106.666667-106.666666h384a106.666667 106.666667 0 0 1 106.666667 106.666666v128z" fill="#CE4141" p-id="3354"></path><path d="M572.373333 579.626667a21.333333 21.333333 0 0 0-30.08 0L512 609.92l-30.08-30.08a21.333333 21.333333 0 0 0-30.08 30.08L481.92 640l-30.08 30.08a21.333333 21.333333 0 0 0 30.08 30.08L512 670.08l30.08 30.08a21.333333 21.333333 0 0 0 30.08-30.08L542.08 640l30.08-30.08a21.333333 21.333333 0 0 0 0.213333-30.293333z" fill="#CE4141" p-id="3355"></path></svg>